<?xml version="1.0" encoding="utf-8"?>
<!-- Generator: Adobe Illustrator 24.0.1, SVG Export Plug-In . SVG Version: 6.00 Build 0)  -->
<svg version="1.1" id="Слой_1" xmlns="http://www.w3.org/2000/svg" xmlns:xlink="http://www.w3.org/1999/xlink" x="0px" y="0px"
	 viewBox="0 0 75 35" style="enable-background:new 0 0 75 35;" xml:space="preserve">
<path style="fill:#525252;" d="M74.4,18.5c0.1-0.3,0.2-0.6,0.2-1c0,0,0,0,0,0c0-0.3-0.1-0.7-0.2-1c0,0,0,0,0,0
	c-0.1-0.3-0.3-0.6-0.5-0.9L60.7,1.3c-1-1.1-2.6-1.1-3.5,0c-1,1.1-1,2.8,0,3.8l8.9,9.7H3c-1.4,0-2.5,1.2-2.5,2.7
	c0,1.5,1.1,2.7,2.5,2.7h63.1l-8.9,9.7c-1,1.1-1,2.8,0,3.8c1,1.1,2.6,1.1,3.5,0l13.2-14.3C74.1,19.1,74.2,18.8,74.4,18.5
	C74.4,18.5,74.4,18.5,74.4,18.5z"/>
</svg>
