<svg version="1.1" id="Layer_1" xmlns="http://www.w3.org/2000/svg"
                                        xmlns:xlink="http://www.w3.org/1999/xlink" x="0px" y="0px" viewBox="0 0 512 512"
                                        style="enable-background:new 0 0 512 512;" xml:space="preserve" fill="#ff3c2d">
                                        <g>
                                            <path
                                                d="M175.6,278L175.6,278c-6.8,0-13.2-3.3-17.9-9.3c-24.4-31.2-97.1-121.8-103.6-129.8 c-17.5-18-26.4-50.8-20.2-75L43,28.1C48.3,7.4,62.1,0,73.3,0c6.9,0,17.3,2.6,27.6,14.7c0.2,0.3,0.4,0.5,0.6,0.8 c1,1.3,95.7,130.2,126.8,173.2c8,11.1,8,22.4,0,33.5c-4.5,6.2-10.9,14.6-17.7,23.5c-6,7.9-12.3,16.1-17,22.6 C189.1,274.5,182.5,278,175.6,278z M73.7,28.7c-0.7,0.7-1.9,2.7-2.9,6.5l-9.1,35.7c-3.8,14.9,2.4,37.5,13.3,48.3 c0.4,0.4,0.7,0.8,1,1.2c0.7,0.9,70.1,87.3,99.4,124.5c3.9-5.2,8.3-10.9,12.5-16.5c6.7-8.7,13-17,17.2-22.9c0,0,0,0,0,0 C175,163.8,85,41.4,78.8,32.9C76.4,30.2,74.5,29.1,73.7,28.7z" />
                                            <path
                                                d="M336.5,278c-0.1,0-0.2,0-0.3,0c-6.8-0.1-13.3-3.6-17.7-9.7c-4.8-6.5-11-14.7-17-22.6 c-6.8-8.9-13.2-17.3-17.7-23.5c-8.1-11.1-8.1-22.4,0-33.5c12.8-17.7,37.5-51.5,73.4-100.4c4.7-6.4,13.6-7.8,20-3.1 c6.4,4.7,7.8,13.6,3.1,20c-35.3,48.2-60.6,82.8-73.2,100.3c0,0,0,0,0,0c4.3,5.9,10.6,14.2,17.2,22.9c4.3,5.6,8.6,11.3,12.5,16.5 c29.3-37.2,98.7-123.6,99.4-124.5c0.3-0.4,0.7-0.8,1-1.2c10.9-10.9,17.1-33.4,13.3-48.3l-9.1-35.7c-1-3.8-2.2-5.7-2.9-6.5 c-0.9,0.3-2.8,1.5-5.1,4.2l-12.3,16.8c-4.7,6.4-13.6,7.7-20,3.1c-6.4-4.7-7.7-13.6-3.1-20l12.7-17.2c0.2-0.3,0.4-0.5,0.6-0.8 C421,3.1,433.3-2,444.8,0.7c11.6,2.7,20.4,12.7,24.1,27.4l9.1,35.7c6.2,24.2-2.7,57-20.2,75c-6.4,8-79.2,98.7-103.6,129.8 C349.6,274.7,343.3,278,336.5,278z" />
                                            <path
                                                d="M256,318.6c-21.4,0-38.8-17.4-38.8-38.8S234.6,241,256,241s38.8,17.4,38.8,38.8 S277.4,318.6,256,318.6z M256,269.6c-5.6,0-10.2,4.6-10.2,10.2s4.6,10.2,10.2,10.2c5.6,0,10.2-4.6,10.2-10.2S261.6,269.6,256,269.6 z" />
                                        </g>
                                        <path
                                            d="M378.2,512C378.2,512,378.2,512,378.2,512c-25.9,0-50.5-9.6-69.3-27.1 c-28.6-26.5-39.4-66-28.8-102.9l-1.8-1.8c-11-11-11-28.9,0-39.9l30.2-30.2c5.3-5.3,12.4-8.3,20-8.3s14.6,2.9,20,8.3l1.8,1.8 c9.1-2.6,18.5-3.9,28.1-3.9c27.2,0,52.9,10.6,72.1,29.9c19.9,19.9,30.5,46.4,29.9,74.6c-0.7,28.1-12.5,54.1-33.4,73.1 C428.1,502.6,403.7,512,378.2,512z M298.8,360.2l7.8,7.8c4,4,5.3,10,3.2,15.3c-11,28.3-3.7,59.9,18.5,80.6 c13.5,12.5,31.2,19.4,49.9,19.4c18.4,0,35.9-6.7,49.3-18.9c15-13.7,23.6-32.4,24.1-52.6c0.5-20.3-7.2-39.3-21.5-53.6 c-13.9-13.9-32.3-21.5-51.9-21.5c-9.2,0-18.2,1.7-26.7,5c-5.3,2.1-11.3,0.8-15.3-3.2l-7.8-7.8L298.8,360.2z M378.2,464.5 c-14.5,0-28.2-5.7-38.5-16c-21.2-21.2-21.2-55.8,0-77c10.3-10.3,24-16,38.5-16s28.2,5.7,38.5,16c21.2,21.2,21.2,55.8,0,77 C406.4,458.9,392.7,464.5,378.2,464.5z M378.2,384.2c-6.9,0-13.4,2.7-18.3,7.6c-10.1,10.1-10.1,26.5,0,36.5 c4.9,4.9,11.4,7.6,18.3,7.6s13.4-2.7,18.3-7.6c10.1-10.1,10.1-26.5,0-36.5C391.6,386.9,385.1,384.2,378.2,384.2z" />
                                        <g>
                                            <path
                                                d="M378.2,512C378.2,512,378.2,512,378.2,512c-25.9,0-50.5-9.6-69.3-27.1 c-28.6-26.5-39.4-66-28.8-102.9l-1.8-1.8c-11-11-11-28.9,0-39.9l30.2-30.2c5.3-5.3,12.4-8.3,20-8.3s14.6,2.9,20,8.3l1.8,1.8 c9.1-2.6,18.5-3.9,28.1-3.9c27.2,0,52.9,10.6,72.1,29.9c19.9,19.9,30.5,46.4,29.9,74.6c-0.7,28.1-12.5,54.1-33.4,73.1 C428.1,502.6,403.7,512,378.2,512z M298.8,360.2l7.8,7.8c4,4,5.3,10,3.2,15.3c-11,28.3-3.7,59.9,18.5,80.6 c13.5,12.5,31.2,19.4,49.9,19.4c18.4,0,35.9-6.7,49.3-18.9c15-13.7,23.6-32.4,24.1-52.6c0.5-20.3-7.2-39.3-21.5-53.6 c-13.9-13.9-32.3-21.5-51.9-21.5c-9.2,0-18.2,1.7-26.7,5c-5.3,2.1-11.3,0.8-15.3-3.2l-7.8-7.8L298.8,360.2z M378.2,464.5 c-14.5,0-28.2-5.7-38.5-16c-21.2-21.2-21.2-55.8,0-77c10.3-10.3,24-16,38.5-16s28.2,5.7,38.5,16c21.2,21.2,21.2,55.8,0,77 C406.4,458.9,392.7,464.5,378.2,464.5z M378.2,384.2c-6.9,0-13.4,2.7-18.3,7.6c-10.1,10.1-10.1,26.5,0,36.5 c4.9,4.9,11.4,7.6,18.3,7.6s13.4-2.7,18.3-7.6c10.1-10.1,10.1-26.5,0-36.5C391.6,386.9,385.1,384.2,378.2,384.2z" />
                                        </g>
                                        <path
                                            d="M133.8,512c-25.5,0-49.9-9.4-68.6-26.4c-20.9-19-32.7-45-33.4-73.1c-0.7-28.2,9.9-54.6,29.9-74.6 c19.3-19.3,44.9-29.9,72.1-29.9c9.6,0,19,1.3,28.1,3.9l1.8-1.8c5.3-5.3,12.4-8.3,20-8.3c7.5,0,14.6,2.9,20,8.3l30.2,30.2 c11,11,11,28.9,0,39.9l-1.8,1.8c10.6,36.9-0.2,76.4-28.8,102.9C184.3,502.4,159.7,512,133.8,512z M133.8,336.7 c-19.6,0-38,7.6-51.9,21.5c-14.3,14.3-22,33.4-21.5,53.6c0.5,20.3,9,38.9,24.1,52.6c13.4,12.2,30.9,18.9,49.3,18.9 c18.6,0,36.4-6.9,49.9-19.4c22.3-20.7,29.5-52.3,18.5-80.6c-2.1-5.3-0.8-11.3,3.2-15.3l7.8-7.8l-29.6-29.6l-7.8,7.8 c-4,4-10,5.3-15.3,3.2C152,338.4,143,336.7,133.8,336.7z M133.8,464.5c-14.5,0-28.2-5.7-38.5-16c-21.2-21.2-21.2-55.8,0-77 c10.3-10.3,24-16,38.5-16s28.2,5.7,38.5,16c21.2,21.2,21.2,55.8,0,77C162.1,458.9,148.4,464.5,133.8,464.5z M133.8,384.2 c-6.9,0-13.4,2.7-18.3,7.6c-10.1,10.1-10.1,26.5,0,36.5c4.9,4.9,11.4,7.6,18.3,7.6s13.4-2.7,18.3-7.6c10.1-10.1,10.1-26.5,0-36.5 C147.2,386.9,140.7,384.2,133.8,384.2z" />
                                    </svg>