<svg version="1.1" xmlns="http://www.w3.org/2000/svg"
                                        xmlns:xlink="http://www.w3.org/1999/xlink" x="0px" y="0px" viewBox="0 0 458 458"
                                        style="enable-background:new 0 0 458 458;" xml:space="preserve" fill="#ff3c2d">
                                        <g id="XMLID_227_">
                                            <g>
                                                <g>
                                                    <path
                                                        d="M427,101.1H181.6V81.5c0-11.9-9.7-21.6-21.6-21.6H75.3c-11.9,0-21.6,9.7-21.6,21.6v19.7H31c-17.1,0-31,13.9-31,31v235 c0,17.1,13.9,31,31,31h396c17.1,0,31-13.9,31-31v-235C458,115.1,444.1,101.1,427,101.1z M73.6,81.5c0-0.9,0.7-1.6,1.6-1.6H160 c0.9,0,1.6,0.7,1.6,1.6v19.7h-88V81.5z M438,367.1c0,6.1-4.9,11-11,11H31c-6.1,0-11-4.9-11-11v-235c0-6.1,4.9-11,11-11 c19.1,0,381.6,0,396,0c6.1,0,11,4.9,11,11V367.1z" />
                                                    <path
                                                        d="M75,202.6c17.9,0,32.5-14.6,32.5-32.5S92.9,137.6,75,137.6s-32.5,14.6-32.5,32.5S57.1,202.6,75,202.6z M75,157.6 c6.9,0,12.5,5.6,12.5,12.5c0,6.9-5.6,12.5-12.5,12.5s-12.5-5.6-12.5-12.5C62.5,163.2,68.1,157.6,75,157.6z" />
                                                    <path
                                                        d="M298.7,139.8c-60.6,0-109.8,49.3-109.8,109.8s49.3,109.8,109.8,109.8c60.6,0,109.8-49.3,109.8-109.8 S359.2,139.8,298.7,139.8z M298.7,339.5c-49.5,0-89.8-40.3-89.8-89.8s40.3-89.8,89.8-89.8s89.8,40.3,89.8,89.8 S348.2,339.5,298.7,339.5z" />
                                                    <path
                                                        d="M298.7,176.1c-40.5,0-73.5,33-73.5,73.5s33,73.5,73.5,73.5s73.5-33,73.5-73.5C372.2,209.1,339.2,176.1,298.7,176.1z M298.7,303.2c-29.5,0-53.5-24-53.5-53.5s24-53.5,53.5-53.5s53.5,24,53.5,53.5S328.2,303.2,298.7,303.2z" />
                                                    <path
                                                        d="M171.6,326.8H52.5c-5.5,0-10,4.5-10,10s4.5,10,10,10h119.1c5.5,0,10-4.5,10-10S177.1,326.8,171.6,326.8z" />
                                                </g>
                                            </g>
                                        </g>
                                    </svg>