<svg version="1.1" xmlns="http://www.w3.org/2000/svg" xmlns:xlink="http://www.w3.org/1999/xlink" x="0px" y="0px" viewBox="0 0 360 360" style="enable-background:new 0 0 360 360;" xml:space="preserve" fill="#ff3c2d">
    <path id="XMLID_947_" d="M305.5,20H248c-4.4,0-8.1,3.1-8.9,7.5l-0.1,0.8c-5.1,28.6-29.9,49.3-59,49.3s-53.9-20.8-59-49.3l-0.1-0.8 c-0.8-4.3-4.5-7.5-8.9-7.5H54.5C24.4,20,0,44.4,0,74.5V131c0,5,4,9,9,9H51c5,0,9,4,9,9V331c0,5,4,9,9,9H291c5,0,9-4,9-9V149 c0-5,4-9,9-9H351c5,0,9-4,9-9V74.5C360,44.4,335.6,20,305.5,20z M89,180H271c5,0,9,4,9,9V201c0,5-4,9-9,9H89c-5,0-9-4-9-9V189 C80,184,84,180,89,180z M89,230H271c5,0,9,4,9,9V251c0,5-4,9-9,9H89c-5,0-9-4-9-9V239C80,234,84,230,89,230z M80,311V289 c0-5,4-9,9-9H271c5,0,9,4,9,9V311c0,5-4,9-9,9H89C84,320,80,316,80,311z M331,120H289c-5,0-9,4-9,9V151c0,5-4,9-9,9H89c-5,0-9-4-9-9 V129c0-5-4-9-9-9H29c-5,0-9-4-9-9V74.5C20,55.5,35.5,40,54.5,40h42.2c3.8,0,7.2,2.4,8.5,5.9c11.5,30.6,41,51.6,74.8,51.6 c33.8,0,63.2-21,74.8-51.6c1.3-3.6,4.7-5.9,8.5-5.9h42.2c19.1,0,34.5,15.5,34.5,34.5V111C340,116,336,120,331,120z" />
</svg>