<svg version="1.1" xmlns="http://www.w3.org/2000/svg"
                                        xmlns:xlink="http://www.w3.org/1999/xlink" x="0px" y="0px" viewBox="0 0 502 502"
                                        style="enable-background:new 0 0 502 502;" xml:space="preserve" fill="#ff3c2d">
                                        <g>
                                            <g>
                                                <g>
                                                    <path
                                                        d="M493.7,60.7L333.1,32.3c-1.1-0.2-2.3-0.2-3.5,0L170.7,60.4L11.7,32.3c-2.9-0.5-5.9,0.3-8.2,2.2C1.3,36.3,0,39.1,0,42.1 v389.4c0,4.9,3.5,9,8.3,9.8l160.7,28.4c1.1,0.2,2.3,0.2,3.5,0l158.9-28.1l158.9,28.1c0.6,0.1,1.2,0.2,1.7,0.2 c2.3,0,4.6-0.8,6.4-2.3c2.3-1.9,3.6-4.7,3.6-7.7V70.5C502,65.7,498.5,61.5,493.7,60.7z M160.7,448L20,423.1V54l140.7,24.9v31.7 C148.3,102,133.4,97,117.3,97C75.2,97,41,131.2,41,173.3c0,38.9,61.4,120.1,68.4,129.3c1.9,2.5,4.8,3.9,7.9,3.9s6-1.4,7.9-3.9 c3.4-4.4,19.6-25.9,35.4-51.2V448z M117.3,279.8C96.5,251,61,197.1,61,173.3c0-31.1,25.3-56.3,56.3-56.3s56.3,25.3,56.3,56.3 C173.6,197.1,138.2,251,117.3,279.8z M321.3,423.1L180.7,448V219c0-0.9-0.1-1.8-0.4-2.6c7.9-16.1,13.3-31.5,13.3-43.1 c0-15.7-4.8-30.3-13-42.5V78.9L321.3,54V423.1z M482,448l-140.7-24.9V54L482,78.9V448z" />
                                                    <path
                                                        d="M117.3,138.5c-19.2,0-34.8,15.6-34.8,34.8s15.6,34.8,34.8,34.8s34.8-15.6,34.8-34.8S136.5,138.5,117.3,138.5z M117.3,188.1c-8.2,0-14.8-6.6-14.8-14.8c0-8.2,6.6-14.8,14.8-14.8s14.8,6.6,14.8,14.8S125.5,188.1,117.3,188.1z" />
                                                    <path
                                                        d="M458,298c5.5,0,10-4.5,10-10V102c0-5.5-4.5-10-10-10s-10,4.5-10,10v186C448,293.5,452.5,298,458,298z" />
                                                    <path
                                                        d="M458,368c5.5,0,10-4.5,10-10v-28c0-5.5-4.5-10-10-10s-10,4.5-10,10v28C448,363.5,452.5,368,458,368z" />
                                                </g>
                                            </g>
                                        </g>
                                    </svg>