<?xml version="1.0" encoding="utf-8"?>
<!-- Generator: Adobe Illustrator 24.0.1, SVG Export Plug-In . SVG Version: 6.00 Build 0)  -->
<svg version="1.1" id="Слой_1" xmlns="http://www.w3.org/2000/svg" xmlns:xlink="http://www.w3.org/1999/xlink" x="0px" y="0px"
	 viewBox="0 0 50 50" style="enable-background:new 0 0 50 50;" xml:space="preserve">
<path style="fill:#FEA400;" d="M9.7,50c0.2-0.6,0.3-1.1,0.5-1.7c1.6-5.7,3.3-11.4,4.9-17.1c0.1-0.2,0-0.3-0.1-0.4
	C10,27,5.1,23.1,0.2,19.2C0.1,19.2,0.1,19.1,0,19c0.1,0,0.2,0,0.3,0c6.1,0,12.2,0,18.3,0c0.3,0,0.4-0.1,0.4-0.3
	c2-6.1,3.9-12.3,5.9-18.4c0-0.1,0.1-0.1,0.1-0.3c0.1,0.2,0.1,0.3,0.1,0.4c2,6.1,3.9,12.2,5.9,18.4c0.1,0.2,0.2,0.2,0.3,0.2
	c6.1,0,12.2,0,18.4,0c0.1,0,0.2,0,0.3,0c-0.1,0.1-0.2,0.2-0.3,0.2C44.9,23.1,40,27,35.1,30.8c-0.2,0.1-0.2,0.2-0.1,0.5
	c1.8,6.2,3.5,12.3,5.3,18.5c0,0.1,0.1,0.1,0,0.2c-0.8-0.6-1.6-1.2-2.4-1.8c-4.2-3.1-8.4-6.2-12.6-9.3c-0.2-0.1-0.3-0.1-0.4,0
	c-4.9,3.6-9.9,7.3-14.8,10.9C9.9,49.9,9.8,49.9,9.7,50z"/>
</svg>
