<?xml version="1.0" encoding="utf-8"?>
<!-- Generator: Adobe Illustrator 24.0.1, SVG Export Plug-In . SVG Version: 6.00 Build 0)  -->
<svg version="1.1" id="Слой_1" xmlns="http://www.w3.org/2000/svg" xmlns:xlink="http://www.w3.org/1999/xlink" x="0px" y="0px"
	 viewBox="0 0 63 139" style="enable-background:new 0 0 63 139;" xml:space="preserve">
<style type="text/css">
	.st0{fill:#FE3C2D;}
</style>
<path class="st0" d="M29.3,5.5C10.9,31.5,4.5,60.1,12.5,91.3c3.8,14.8,14.7,25,28.2,28.2c1.6,0.4,2.7-1.6,1.6-2.9
	c-1.1-1.3-2.2-2.5-2.8-4.1c-0.5-1.2-1.5-2.5-0.4-3.7c1.1-1.2,2.5-0.4,3.6,0.3c4,2.2,7.8,4.7,11.9,6.7c1.5,0.7,3.1,1.4,4.7,1.9
	c3.8,1.4,5.1,6.4,2.2,9.3c-0.6,0.7-1.4,1.3-2.2,1.8c-6.4,4.1-12.5,8.7-20,10.6c-0.8,0.2-1.6-0.2-1.9-0.9c-0.9-2.2,0.8-3.7,2.3-5.1
	c0.6-0.6,1.3-1.2,2.1-1.7c1.3-0.9,0.7-3.1-0.9-3.1c-19.8-1.2-37.5-19.1-37.6-43.1c-0.2-1.3-0.2-2.6-0.3-3.9c-0.1-1.4-0.2-2.7-0.2-4
	c0-3.2,0-8.3,0-9.8c0-0.3,0.1-1.6,0.1-1.8c0.1-1.5,0.1-2.1,0.3-3.6c0-0.1,0-0.2,0-0.3C3.9,39,13.1,19.5,27.6,2.3
	C27.7,2.2,27.8,2,28,1.9c1.6-1.5,3.8,1,2.3,2.5C29.9,4.8,29.6,5.2,29.3,5.5z"/>
</svg>
